<svg width="842" height="595" viewBox="0 0 842 595" fill="none" xmlns="http://www.w3.org/2000/svg">
<rect width="842" height="595" fill="#12284C"/>
<circle cx="168.736" cy="296.579" r="109.736" fill="#FECC00"/>
<rect x="300.13" y="186.843" width="219.472" height="219.472" fill="#50C0FF"/>
<path d="M729.147 186.156L794.483 298.696L729.688 410.924L599.558 410.611L534.221 298.071L599.016 185.843L729.147 186.156Z" fill="#DE4A5C"/>
<path d="M134.153 316.797C139.151 323.044 144.409 327.885 149.927 331.321C155.445 334.757 162.369 336.475 170.698 336.475C174.967 336.475 179.08 335.902 183.036 334.757C186.992 333.508 190.22 331.738 192.719 329.447C195.218 327.052 196.467 324.085 196.467 320.545C196.467 315.339 193.864 311.539 188.658 309.144C183.452 306.645 176.164 304.667 166.794 303.21C155.029 301.231 145.658 297.743 138.682 292.746C131.81 287.644 128.375 280.2 128.375 270.413C128.375 263.957 130.301 258.387 134.153 253.702C138.005 249.017 143.107 245.425 149.458 242.926C155.809 240.427 162.785 239.178 170.386 239.178C179.965 239.178 188.242 240.844 195.218 244.175C202.298 247.507 207.816 252.244 211.772 258.387L200.215 270.413C196.884 265.623 192.667 261.771 187.565 258.856C182.567 255.836 176.685 254.327 169.917 254.327C163.15 254.327 157.423 255.68 152.738 258.387C148.157 260.99 145.866 264.686 145.866 269.476C145.866 274.994 148.313 278.95 153.206 281.345C158.1 283.74 164.607 285.614 172.728 286.967C178.038 287.8 183.14 288.946 188.034 290.403C192.927 291.861 197.3 293.787 201.152 296.182C205.109 298.472 208.232 301.335 210.523 304.771C212.813 308.103 213.959 312.216 213.959 317.109C213.959 324.085 212.137 330.176 208.493 335.382C204.953 340.483 199.851 344.492 193.187 347.407C186.524 350.218 178.663 351.624 169.605 351.624C160.026 351.624 151.332 349.958 143.524 346.626C135.715 343.295 128.843 337.88 122.908 330.384L134.153 316.797Z" fill="#12284C"/>
<path d="M134.153 316.797L139.655 312.395L134.246 305.634L128.725 312.305L134.153 316.797ZM149.927 331.321L146.203 337.302L149.927 331.321ZM183.036 334.757L184.995 341.525L185.077 341.501L185.158 341.475L183.036 334.757ZM192.719 329.447L197.48 334.641L197.537 334.588L197.594 334.534L192.719 329.447ZM188.658 309.144L185.609 315.496L185.661 315.521L185.714 315.545L188.658 309.144ZM166.794 303.21L165.625 310.158L165.668 310.165L165.711 310.171L166.794 303.21ZM138.682 292.746L134.482 298.403L134.53 298.438L134.579 298.473L138.682 292.746ZM134.153 253.702L139.595 258.177L134.153 253.702ZM149.458 242.926L152.038 249.482L149.458 242.926ZM195.218 244.175L192.181 250.533L192.199 250.542L192.218 250.55L195.218 244.175ZM211.772 258.387L216.852 263.269L220.711 259.254L217.695 254.572L211.772 258.387ZM200.215 270.413L194.432 274.436L199.34 281.492L205.295 275.295L200.215 270.413ZM187.565 258.856L183.922 264.886L183.995 264.93L184.07 264.973L187.565 258.856ZM152.738 258.387L156.218 264.513L156.241 264.5L156.263 264.488L152.738 258.387ZM153.206 281.345L150.11 287.673H150.11L153.206 281.345ZM172.728 286.967L171.57 293.917L171.603 293.922L171.637 293.928L172.728 286.967ZM201.152 296.182L197.433 302.165L197.527 302.224L197.622 302.279L201.152 296.182ZM210.523 304.771L204.661 308.679L204.689 308.721L204.717 308.763L210.523 304.771ZM208.493 335.382L202.721 331.341L202.712 331.353L202.704 331.365L208.493 335.382ZM193.187 347.407L195.926 353.899L195.969 353.881L196.011 353.862L193.187 347.407ZM143.524 346.626L146.289 340.146L143.524 346.626ZM122.908 330.384L117.481 325.892L113.845 330.286L117.384 334.757L122.908 330.384ZM128.651 321.198C134.037 327.93 139.871 333.36 146.203 337.302L153.651 325.34C148.946 322.411 144.264 318.158 139.655 312.395L128.651 321.198ZM146.203 337.302C153.113 341.604 161.418 343.52 170.698 343.52V329.429C163.32 329.429 157.777 327.91 153.651 325.34L146.203 337.302ZM170.698 343.52C175.605 343.52 180.379 342.861 184.995 341.525L181.077 327.989C177.78 328.944 174.328 329.429 170.698 329.429V343.52ZM185.158 341.475C189.88 339.984 194.073 337.764 197.48 334.641L187.958 324.253C186.367 325.711 184.105 327.031 180.914 328.038L185.158 341.475ZM197.594 334.534C201.514 330.776 203.513 325.956 203.513 320.545H189.422C189.422 322.214 188.921 323.328 187.844 324.36L197.594 334.534ZM203.513 320.545C203.513 316.713 202.534 313.03 200.328 309.809C198.15 306.63 195.082 304.344 191.603 302.743L185.714 315.545C187.44 316.339 188.277 317.151 188.702 317.772C189.099 318.351 189.422 319.171 189.422 320.545H203.513ZM191.707 302.793C185.61 299.866 177.551 297.753 167.877 296.248L165.711 310.171C174.777 311.582 181.295 313.425 185.609 315.496L191.707 302.793ZM167.962 296.262C156.867 294.396 148.617 291.196 142.785 287.018L134.579 298.473C142.699 304.291 153.19 308.067 165.625 310.158L167.962 296.262ZM142.882 287.089C138.075 283.52 135.42 278.336 135.42 270.413H121.329C121.329 282.064 125.546 291.768 134.482 298.403L142.882 287.089ZM135.42 270.413C135.42 265.477 136.849 261.516 139.595 258.177L128.711 249.227C123.752 255.258 121.329 262.438 121.329 270.413H135.42ZM139.595 258.177C142.595 254.529 146.66 251.598 152.038 249.482L146.879 236.37C139.554 239.251 133.416 243.505 128.711 249.227L139.595 258.177ZM152.038 249.482C157.479 247.341 163.568 246.223 170.386 246.223V232.132C162.002 232.132 154.14 233.513 146.879 236.37L152.038 249.482ZM170.386 246.223C179.159 246.223 186.352 247.749 192.181 250.533L198.254 237.818C190.131 233.938 180.77 232.132 170.386 232.132V246.223ZM192.218 250.55C198.191 253.361 202.659 257.249 205.849 262.202L217.695 254.572C212.973 247.24 206.404 241.653 198.218 237.8L192.218 250.55ZM206.692 253.505L195.135 265.531L205.295 275.295L216.852 263.269L206.692 253.505ZM205.999 266.389C202.065 260.734 197.064 256.169 191.061 252.739L184.07 264.973C188.269 267.373 191.702 270.512 194.432 274.436L205.999 266.389ZM191.208 252.825C184.947 249.042 177.762 247.281 169.917 247.281V261.372C175.608 261.372 180.188 262.63 183.922 264.886L191.208 252.825ZM169.917 247.281C162.219 247.281 155.207 248.823 149.213 252.287L156.263 264.488C159.639 262.537 164.081 261.372 169.917 261.372V247.281ZM149.257 252.261C142.741 255.964 138.821 261.857 138.821 269.476H152.912C152.912 267.515 153.573 266.016 156.218 264.513L149.257 252.261ZM138.821 269.476C138.821 273.297 139.678 277.003 141.709 280.287C143.743 283.577 146.677 285.994 150.11 287.673L156.303 275.017C154.842 274.301 154.106 273.543 153.694 272.876C153.278 272.204 152.912 271.172 152.912 269.476H138.821ZM150.11 287.673C155.843 290.479 163.083 292.502 171.57 293.917L173.887 280.018C166.132 278.725 160.357 277 156.303 275.017L150.11 287.673ZM171.637 293.928C176.652 294.714 181.446 295.792 186.022 297.155L190.045 283.651C184.835 282.099 179.425 280.886 173.82 280.007L171.637 293.928ZM186.022 297.155C190.389 298.456 194.175 300.14 197.433 302.165L204.872 290.198C200.425 287.434 195.465 285.265 190.045 283.651L186.022 297.155ZM197.622 302.279C200.745 304.087 203.031 306.235 204.661 308.679L216.385 300.863C213.433 296.436 209.472 292.857 204.682 290.084L197.622 302.279ZM204.717 308.763C206.043 310.692 206.913 313.337 206.913 317.109H221.004C221.004 311.095 219.583 305.514 216.329 300.78L204.717 308.763ZM206.913 317.109C206.913 322.787 205.455 327.435 202.721 331.341L214.264 339.422C218.819 332.916 221.004 325.382 221.004 317.109H206.913ZM202.704 331.365C200.027 335.223 196.04 338.469 190.363 340.952L196.011 353.862C203.662 350.515 209.878 345.743 214.281 339.398L202.704 331.365ZM190.449 340.916C184.841 343.281 177.952 344.578 169.605 344.578V358.669C179.374 358.669 188.207 357.155 195.926 353.899L190.449 340.916ZM169.605 344.578C160.855 344.578 153.118 343.06 146.289 340.146L140.759 353.107C149.547 356.856 159.197 358.669 169.605 358.669V344.578ZM146.289 340.146C139.691 337.331 133.731 332.704 128.432 326.011L117.384 334.757C123.955 343.057 131.738 349.258 140.759 353.107L146.289 340.146ZM128.336 334.876L139.581 321.289L128.725 312.305L117.481 325.892L128.336 334.876Z" fill="#12284C"/>
<path d="M465.121 237.852L418.893 347.174H400.933L354.549 237.852H373.759L401.089 303.758C402.651 307.506 404.265 311.462 405.931 315.627C407.701 319.687 409.315 323.696 410.772 327.652C412.23 323.696 413.74 319.687 415.301 315.627C416.967 311.566 418.529 307.662 419.987 303.914L445.287 237.852H465.121Z" fill="#12284C"/>
<path d="M465.121 237.852L471.61 240.596L475.75 230.806H465.121V237.852ZM418.893 347.174V354.22H423.564L425.383 349.918L418.893 347.174ZM400.933 347.174L394.447 349.926L396.269 354.22H400.933V347.174ZM354.549 237.852V230.806H343.906L348.063 240.603L354.549 237.852ZM373.759 237.852L380.267 235.153L378.464 230.806H373.759V237.852ZM401.089 303.758L394.581 306.456L394.586 306.467L401.089 303.758ZM405.931 315.627L399.389 318.244L399.429 318.343L399.472 318.442L405.931 315.627ZM410.772 327.652L404.161 330.088L410.772 348.032L417.383 330.088L410.772 327.652ZM415.301 315.627L408.783 312.953L408.753 313.025L408.725 313.098L415.301 315.627ZM419.987 303.914L426.553 306.467L426.56 306.45L426.566 306.434L419.987 303.914ZM445.287 237.852V230.806H440.441L438.708 235.332L445.287 237.852ZM458.632 235.108L412.404 344.43L425.383 349.918L471.61 240.596L458.632 235.108ZM418.893 340.129H400.933V354.22H418.893V340.129ZM407.419 344.422L361.035 235.1L348.063 240.603L394.447 349.926L407.419 344.422ZM354.549 244.897H373.759V230.806H354.549V244.897ZM367.251 240.55L394.581 306.456L407.597 301.059L380.267 235.153L367.251 240.55ZM394.586 306.467C396.133 310.182 397.735 314.107 399.389 318.244L412.472 313.01C410.795 308.818 409.169 304.83 407.593 301.048L394.586 306.467ZM399.472 318.442C401.19 322.384 402.753 326.266 404.161 330.088L417.383 325.217C415.876 321.126 414.211 316.991 412.389 312.812L399.472 318.442ZM417.383 330.088C418.829 326.164 420.327 322.187 421.877 318.156L408.725 313.098C407.152 317.188 405.631 321.228 404.161 325.217L417.383 330.088ZM421.82 318.301C423.5 314.204 425.078 310.259 426.553 306.467L413.42 301.36C411.98 305.065 410.434 308.929 408.783 312.953L421.82 318.301ZM426.566 306.434L451.866 240.371L438.708 235.332L413.407 301.394L426.566 306.434ZM445.287 244.897H465.121V230.806H445.287V244.897Z" fill="#12284C"/>
<path d="M668.809 236.915C675.681 236.915 682.032 237.8 687.862 239.57C693.797 241.339 699.003 243.63 703.48 246.441C707.957 249.252 711.497 252.272 714.1 255.499L703.167 267.213C698.482 263.152 693.224 259.82 687.394 257.217C681.667 254.614 675.472 253.313 668.809 253.313C660.584 253.313 653.191 255.031 646.632 258.467C640.073 261.903 634.867 266.588 631.014 272.523C627.266 278.353 625.392 285.017 625.392 292.513C625.392 300.634 627.422 307.714 631.483 313.753C635.543 319.687 640.853 324.269 647.413 327.496C653.972 330.724 661.104 332.338 668.809 332.338C675.264 332.338 681.199 331.296 686.613 329.214C692.131 327.132 696.556 324.321 699.888 320.781C703.219 317.137 704.885 312.972 704.885 308.287H668.496V291.732H722.533C722.741 293.086 722.898 294.491 723.002 295.949C723.21 297.406 723.314 298.812 723.314 300.166C723.314 305.892 722.429 311.41 720.659 316.72C718.889 322.03 716.338 326.559 713.006 330.307C708.425 336.034 702.23 340.563 694.422 343.895C686.717 347.122 677.867 348.736 667.872 348.736C659.647 348.736 651.89 347.435 644.602 344.832C637.418 342.125 631.066 338.324 625.548 333.431C620.03 328.433 615.709 322.499 612.586 315.627C609.462 308.651 607.9 300.946 607.9 292.513C607.9 284.6 609.41 277.312 612.43 270.648C615.553 263.881 619.874 257.998 625.392 253.001C631.014 247.899 637.522 243.942 644.914 241.131C652.306 238.32 660.271 236.915 668.809 236.915Z" fill="#12284C"/>
<path d="M687.862 239.57L685.816 246.311L685.832 246.316L685.849 246.321L687.862 239.57ZM714.1 255.499L719.25 260.307L723.423 255.836L719.584 251.077L714.1 255.499ZM703.167 267.213L698.553 272.537L703.685 276.984L708.318 272.02L703.167 267.213ZM687.394 257.217L684.478 263.631L684.5 263.641L684.522 263.651L687.394 257.217ZM646.632 258.467L643.363 252.226L646.632 258.467ZM631.014 272.522L625.105 268.686L625.096 268.699L625.088 268.713L631.014 272.522ZM631.483 313.753L625.636 317.684L625.652 317.708L625.668 317.731L631.483 313.753ZM647.413 327.496L644.302 333.818H644.302L647.413 327.496ZM686.613 329.214L684.125 322.622L684.104 322.63L684.084 322.638L686.613 329.214ZM699.888 320.781L705.018 325.609L705.053 325.572L705.088 325.535L699.888 320.781ZM704.885 308.287H711.931V301.241H704.885V308.287ZM668.496 308.287H661.451V315.332H668.496V308.287ZM668.496 291.732V284.687H661.451V291.732H668.496ZM722.533 291.732L729.497 290.661L728.578 284.687H722.533V291.732ZM723.002 295.949L715.974 296.451L715.992 296.699L716.027 296.945L723.002 295.949ZM713.006 330.307L707.741 325.627L707.619 325.763L707.505 325.906L713.006 330.307ZM694.422 343.895L697.144 350.393L697.165 350.384L697.187 350.375L694.422 343.895ZM644.602 344.832L642.117 351.425L642.175 351.446L642.232 351.467L644.602 344.832ZM625.548 333.431L620.819 338.653L620.846 338.678L620.874 338.702L625.548 333.431ZM612.586 315.627L606.155 318.506L606.164 318.524L606.172 318.542L612.586 315.627ZM612.43 270.648L606.033 267.696L606.022 267.718L606.012 267.741L612.43 270.648ZM625.392 253.001L630.122 258.223L630.127 258.218L625.392 253.001ZM644.914 241.131L642.41 234.546L644.914 241.131ZM668.809 243.96C675.074 243.96 680.727 244.766 685.816 246.311L689.909 232.828C683.336 230.833 676.287 229.869 668.809 229.869V243.96ZM685.849 246.321C691.274 247.939 695.879 249.988 699.733 252.408L707.226 240.474C702.127 237.272 696.319 234.74 689.876 232.818L685.849 246.321ZM699.733 252.408C703.722 254.913 706.616 257.443 708.615 259.922L719.584 251.077C716.378 247.101 712.191 243.592 707.226 240.474L699.733 252.408ZM708.949 250.692L698.017 262.405L708.318 272.02L719.25 260.307L708.949 250.692ZM707.782 261.888C702.558 257.361 696.709 253.66 690.266 250.784L684.522 263.651C689.739 265.98 694.406 268.943 698.553 272.537L707.782 261.888ZM690.309 250.803C683.613 247.76 676.417 246.267 668.809 246.267V260.358C674.527 260.358 679.721 261.469 684.478 263.631L690.309 250.803ZM668.809 246.267C659.573 246.267 651.039 248.205 643.363 252.226L649.901 264.708C655.344 261.857 661.594 260.358 668.809 260.358V246.267ZM643.363 252.226C635.783 256.196 629.647 261.689 625.105 268.686L636.924 276.359C640.086 271.487 644.362 267.609 649.901 264.708L643.363 252.226ZM625.088 268.713C620.549 275.772 618.347 283.78 618.347 292.513H632.438C632.438 286.253 633.983 280.934 636.941 276.332L625.088 268.713ZM618.347 292.513C618.347 301.866 620.705 310.351 625.636 317.684L637.33 309.821C634.14 305.077 632.438 299.402 632.438 292.513H618.347ZM625.668 317.731C630.425 324.684 636.674 330.064 644.302 333.818L650.523 321.175C645.033 318.473 640.662 314.691 637.298 309.774L625.668 317.731ZM644.302 333.818C651.882 337.547 660.085 339.383 668.809 339.383V325.292C662.123 325.292 656.063 323.9 650.523 321.175L644.302 333.818ZM668.809 339.383C676.032 339.383 682.835 338.216 689.142 335.79L684.084 322.638C679.563 324.377 674.497 325.292 668.809 325.292V339.383ZM689.1 335.806C695.411 333.424 700.811 330.08 705.018 325.609L694.757 315.952C692.301 318.562 688.851 320.839 684.125 322.622L689.1 335.806ZM705.088 325.535C709.536 320.669 711.931 314.833 711.931 308.287H697.84C697.84 311.111 696.903 313.604 694.688 316.027L705.088 325.535ZM704.885 301.241H668.496V315.332H704.885V301.241ZM675.542 308.287V291.732H661.451V308.287H675.542ZM668.496 298.778H722.533V284.687H668.496V298.778ZM715.57 292.803C715.747 293.956 715.883 295.171 715.974 296.451L730.029 295.447C729.912 293.811 729.736 292.215 729.497 290.661L715.57 292.803ZM716.027 296.945C716.192 298.101 716.269 299.173 716.269 300.166H730.36C730.36 298.451 730.228 296.712 729.976 294.952L716.027 296.945ZM716.269 300.166C716.269 305.152 715.5 309.917 713.975 314.492L727.343 318.948C729.358 312.903 730.36 306.632 730.36 300.166H716.269ZM713.975 314.492C712.472 319.002 710.369 322.67 707.741 325.627L718.272 334.988C722.308 330.448 725.306 325.058 727.343 318.948L713.975 314.492ZM707.505 325.906C703.757 330.59 698.565 334.467 691.657 337.414L697.187 350.375C705.895 346.659 713.093 341.477 718.508 334.709L707.505 325.906ZM691.699 337.396C685.009 340.199 677.112 341.691 667.872 341.691V355.782C678.622 355.782 688.425 354.045 697.144 350.393L691.699 337.396ZM667.872 341.691C660.403 341.691 653.452 340.511 646.971 338.197L642.232 351.467C650.327 354.358 658.89 355.782 667.872 355.782V341.691ZM647.086 338.239C640.673 335.822 635.072 332.459 630.223 328.16L620.874 338.702C627.061 344.189 634.162 348.427 642.117 351.425L647.086 338.239ZM630.278 328.209C625.483 323.866 621.731 318.72 619 312.711L606.172 318.542C609.688 326.277 614.577 333 620.819 338.653L630.278 328.209ZM619.016 312.748C616.338 306.767 614.946 300.057 614.946 292.513H600.855C600.855 301.835 602.586 310.535 606.155 318.506L619.016 312.748ZM614.946 292.513C614.946 285.52 616.274 279.234 618.847 273.556L606.012 267.741C602.546 275.39 600.855 283.68 600.855 292.513H614.946ZM618.827 273.601C621.553 267.693 625.307 262.583 630.122 258.223L620.663 247.778C614.441 253.413 609.553 260.068 606.033 267.696L618.827 273.601ZM630.127 258.218C635.07 253.732 640.813 250.228 647.418 247.717L642.41 234.546C634.23 237.656 626.958 242.066 620.658 247.783L630.127 258.218ZM647.418 247.717C653.949 245.233 661.059 243.96 668.809 243.96V229.869C659.484 229.869 650.663 231.407 642.41 234.546L647.418 247.717Z" fill="#12284C"/>
</svg>
